<?xml version="1.0" encoding="utf-8"?>
<!-- Generator: Adobe Illustrator 25.4.1, SVG Export Plug-In . SVG Version: 6.00 Build 0)  -->
<svg version="1.0" id="katman_1" xmlns="http://www.w3.org/2000/svg" xmlns:xlink="http://www.w3.org/1999/xlink" x="0px" y="0px"
	 viewBox="0 0 800 600" style="enable-background:new 0 0 800 600;" xml:space="preserve">
<style type="text/css">
	.st0{fill-rule:evenodd;clip-rule:evenodd;fill:#1E1E1E;}
</style>
<path class="st0" d="M165.6,325.2l-8.2-8.4c-2.9,2.8-6.1,5.1-9.5,7c-3.6,1.8-7.6,2.7-11.6,2.6c-3.3,0-6.6-0.7-9.7-2.1
	c-2.9-1.4-5.6-3.3-7.7-5.6c-2.2-2.4-3.9-5.3-5-8.4c-1.2-3.3-1.8-6.8-1.8-10.3c0-3.5,0.6-6.9,1.8-10.2c1.2-3,2.9-5.8,5-8.3
	c2.2-2.4,4.8-4.3,7.7-5.6c3-1.4,6.3-2.1,9.7-2.1c3.9-0.1,7.8,0.8,11.2,2.6c3.4,1.8,6.5,4,9.3,6.6l8.3-9.6c-1.7-1.7-3.6-3.2-5.5-4.6
	c-2-1.4-4.1-2.6-6.4-3.6c-2.4-1.1-5-1.9-7.6-2.4c-3-0.6-6.1-0.9-9.2-0.8c-5.3-0.1-10.5,1-15.3,3c-4.5,1.9-8.6,4.7-12,8.2
	c-3.3,3.5-5.9,7.5-7.7,12c-1.8,4.7-2.8,9.8-2.7,14.9c0,5.1,0.9,10.2,2.8,14.9c1.8,4.5,4.5,8.6,7.8,12.1c3.4,3.4,7.4,6.2,11.8,8.1
	c4.7,2,9.8,3,14.9,3c3.2,0,6.3-0.3,9.4-0.9c2.7-0.6,5.3-1.4,7.7-2.6c2.3-1.2,4.6-2.5,6.7-4.1C161.7,329.1,163.7,327.2,165.6,325.2z"
	/>
<path class="st0" d="M331.9,282.9c0-2.5,1.2-4.8,3.1-6.3c2.1-1.7,5-2.5,8.8-2.5c3.4,0,6.7,0.7,9.9,2c3.5,1.5,6.9,3.4,9.9,5.6
	l6.9-9.8c-3.6-2.9-7.7-5.3-12-6.9c-4.6-1.7-9.5-2.5-14.4-2.4c-3.4,0-6.8,0.5-10,1.5c-2.9,0.9-5.6,2.4-7.8,4.4
	c-2.2,1.9-3.9,4.2-5.1,6.8c-1.3,2.7-2,5.7-1.9,8.8c-0.1,3,0.5,6,1.6,8.7c1.1,2.4,2.7,4.4,4.7,6.1c2.3,1.8,4.9,3.2,7.6,4.2
	c3.4,1.2,6.9,2.2,10.4,3c2.8,0.7,5.6,1.5,8.3,2.4c1.8,0.6,3.4,1.4,5,2.5c1.1,0.7,2,1.7,2.5,2.9c0.5,1.1,0.7,2.3,0.7,3.6
	c0.1,2.7-1.2,5.3-3.5,6.8c-2.8,1.8-6.1,2.7-9.4,2.6c-4.2,0.1-8.5-0.8-12.4-2.5c-3.9-1.9-7.5-4.2-10.7-7.1l-7.8,9.2
	c8.2,7.7,19.1,11.9,30.4,11.8c3.6,0,7.2-0.5,10.6-1.5c3-0.9,5.8-2.4,8.2-4.3c2.3-1.9,4.1-4.2,5.3-6.9c1.3-3,1.9-6.1,1.9-9.4
	c0-2.8-0.5-5.5-1.5-8.1c-1-2.3-2.5-4.4-4.4-6c-2.2-1.9-4.7-3.4-7.4-4.4c-3.3-1.3-6.7-2.4-10.2-3.3c-3.5-0.8-6.4-1.7-8.6-2.4
	c-1.9-0.6-3.6-1.4-5.3-2.5c-1.2-0.7-2.1-1.8-2.7-3C332.1,285.4,331.9,284.2,331.9,282.9z"/>
<path class="st0" d="M474.7,283.9v52.6h12.7v-73.3h-13.7l-22.2,34.7l-22.2-34.7h-13.7v73.3h12.7v-52.4l22.9,34.4h0.4L474.7,283.9z"
	/>
<path class="st0" d="M594.4,300.3c0,3.5-0.6,6.9-1.8,10.2c-1.1,3.1-2.9,5.9-5.1,8.3c-4.6,4.9-11,7.7-17.7,7.6c-3.4,0-6.9-0.7-10-2.1
	c-3-1.4-5.7-3.3-7.9-5.7c-2.2-2.4-4-5.3-5.1-8.4c-2.5-6.6-2.5-13.8,0-20.4c1.1-3.1,2.8-5.9,5-8.3c4.6-4.9,11-7.7,17.7-7.6
	c3.4,0,6.9,0.7,10,2.1c3,1.4,5.7,3.3,7.9,5.7c2.2,2.4,4,5.3,5.2,8.4C593.8,293.3,594.4,296.8,594.4,300.3z M607.9,300
	c0-5.1-0.9-10.1-2.8-14.8c-1.8-4.5-4.4-8.6-7.8-12.1c-3.4-3.5-7.5-6.3-12-8.2c-4.9-2.1-10.2-3.1-15.5-3c-10.4-0.1-20.4,4-27.7,11.4
	c-3.5,3.5-6.2,7.6-8,12.2c-3.8,9.5-3.8,20,0,29.5c1.8,4.5,4.5,8.6,7.8,12.1c3.4,3.5,7.5,6.3,12,8.2c4.9,2.1,10.2,3.1,15.5,3
	c5.3,0.1,10.6-1,15.5-3.1c4.6-1.9,8.7-4.8,12.1-8.3c3.5-3.5,6.2-7.6,8-12.2C607,310.1,607.9,305.1,607.9,300L607.9,300z"/>
<path class="st0" d="M661.4,282.9c0-2.5,1.2-4.8,3.1-6.3c2.1-1.7,5-2.5,8.8-2.5c3.4,0,6.7,0.7,9.9,2c3.5,1.5,6.9,3.4,9.9,5.6
	l6.9-9.8c-3.6-2.9-7.7-5.2-12-6.9c-4.6-1.7-9.5-2.5-14.4-2.4c-3.4,0-6.8,0.5-10,1.5c-2.9,0.9-5.6,2.4-7.8,4.4
	c-2.2,1.9-3.9,4.2-5.1,6.8c-1.3,2.7-2,5.7-1.9,8.8c-0.1,3,0.5,6,1.6,8.7c1.1,2.4,2.7,4.4,4.7,6.1c2.3,1.8,4.9,3.2,7.6,4.2
	c3.4,1.2,6.9,2.2,10.4,3c2.8,0.7,5.6,1.5,8.3,2.4c1.8,0.6,3.4,1.4,5,2.5c1.1,0.7,2,1.7,2.5,2.9c0.5,1.1,0.7,2.3,0.7,3.6
	c0.1,2.7-1.2,5.3-3.5,6.8c-2.8,1.8-6.1,2.7-9.4,2.6c-4.2,0.1-8.5-0.8-12.3-2.5c-3.9-1.9-7.5-4.2-10.7-7.1l-7.7,9.3
	c8.2,7.7,19.1,11.9,30.4,11.8c3.6,0,7.2-0.5,10.6-1.5c3-0.9,5.8-2.4,8.2-4.3c2.3-1.9,4.1-4.2,5.3-6.9c1.3-3,1.9-6.2,1.9-9.4
	c0-2.8-0.5-5.5-1.5-8.1c-1-2.3-2.5-4.4-4.4-6c-2.2-1.9-4.7-3.4-7.4-4.4c-3.3-1.3-6.7-2.4-10.2-3.3c-3.5-0.8-6.4-1.7-8.6-2.4
	c-1.9-0.6-3.6-1.5-5.3-2.6c-1.2-0.7-2.1-1.8-2.7-3C661.6,285.4,661.4,284.2,661.4,282.9z"/>
<path class="st0" d="M253,277.9l-34.9,35c-0.5-0.9-0.9-1.8-1.3-2.7c-2.4-6.5-2.4-13.7,0-20.3c1.2-3.1,2.9-5.9,5.1-8.3
	c2.2-2.4,4.8-4.3,7.7-5.6c3.1-1.4,6.6-2.1,10-2.1c3.4,0,6.8,0.7,10,2.1C250.9,276.6,251.9,277.2,253,277.9z M249.9,324.2
	c-3.1,1.4-6.6,2.1-10,2.1c-4.7,0.1-9.3-1.3-13.2-3.9l34.8-35c0.5,0.9,0.9,1.8,1.2,2.7c2.4,6.5,2.4,13.7,0,20.3
	c-1.1,3.1-2.8,5.9-5,8.3C255.5,321.1,252.9,322.9,249.9,324.2z M255.2,335.2c4.5-2,8.7-4.8,12.2-8.3c3.4-3.5,6.1-7.6,8-12.1
	c3.8-9.4,3.8-20,0-29.4c-1.1-2.7-2.4-5.2-4.1-7.6l22.7-22.8l-9-9.1l-22.8,22.9c-2.1-1.5-4.4-2.7-6.7-3.6c-4.9-2-10.2-3.1-15.5-3
	c-10.3-0.1-20.3,4-27.5,11.3c-3.4,3.5-6.2,7.6-8,12.1c-5,12.2-3.5,26.2,4.2,37l-22.8,22.7l9,9.1l22.8-22.9c2.1,1.4,4.3,2.6,6.6,3.6
	c4.9,2,10.2,3.1,15.5,3C245,338.3,250.3,337.2,255.2,335.2z"/>
</svg>
