<?xml version="1.0" encoding="utf-8"?>
<!-- Generator: Adobe Illustrator 25.4.1, SVG Export Plug-In . SVG Version: 6.00 Build 0)  -->
<svg version="1.0" id="katman_1" xmlns="http://www.w3.org/2000/svg" xmlns:xlink="http://www.w3.org/1999/xlink" x="0px" y="0px"
	 viewBox="0 0 1700 1200" style="enable-background:new 0 0 1700 1200;" xml:space="preserve">
<style type="text/css">
	.st0{fill:#1D1D1B;}
	.st1{fill:#5E12A0;}
	.st2{fill:url(#SVGID_1_);}
	.st3{fill:url(#SVGID_00000162314699724512698540000007259225189734543787_);}
	.st4{opacity:0.6;fill:#A98698;enable-background:new    ;}
	.st5{opacity:0.6;fill:url(#SVGID_00000044149101453777443920000012304397161665727406_);enable-background:new    ;}
	.st6{opacity:0.6;fill:url(#SVGID_00000168112384409236198810000005238756706269079454_);enable-background:new    ;}
	.st7{fill:url(#SVGID_00000038374207502795794940000011253687901888120197_);}
	.st8{opacity:0.6;fill:url(#SVGID_00000051349351164866344500000013068413784524509345_);enable-background:new    ;}
	.st9{opacity:0.7;fill:url(#SVGID_00000061458413436735253360000002872783787240568254_);enable-background:new    ;}
	.st10{fill:url(#SVGID_00000103231721729163044430000010321467976668313239_);}
	.st11{fill:#FFFFFF;}
	.st12{opacity:0.6;fill:url(#SVGID_00000137092891603511834410000013471225407349360282_);enable-background:new    ;}
	.st13{opacity:0.2;fill:#FFFFFF;enable-background:new    ;}
	.st14{opacity:0.6;fill:url(#SVGID_00000134247850356323659080000013376280013312452759_);enable-background:new    ;}
	.st15{opacity:0.3;fill:#FFFFFF;enable-background:new    ;}
	.st16{opacity:0.6;fill:url(#SVGID_00000181804186269727473950000004763461535306974396_);enable-background:new    ;}
	.st17{opacity:0.6;fill:url(#SVGID_00000053532320430587859350000007834002376949536166_);enable-background:new    ;}
	.st18{opacity:0.6;fill:url(#SVGID_00000088834726117948499000000003152395713187003013_);enable-background:new    ;}
	.st19{opacity:0.6;fill:url(#SVGID_00000129902025961074317340000016783637154480065678_);enable-background:new    ;}
	.st20{opacity:0.6;fill:url(#SVGID_00000070089606571774504680000012192691119491535258_);enable-background:new    ;}
</style>
<path class="st0" d="M521.8,623.7c0-47.3,34.6-81.3,82.2-81.3c47.6,0,82.2,34,82.2,81.3c0,47.3-34.6,81.3-82.2,81.3
	C556.7,705,521.8,671,521.8,623.7z M651.8,623.7c0-29.5-19-51.8-47.9-51.8c-28.9,0-47.6,22.3-47.6,51.8c0,29.2,18.7,51.8,47.6,51.8
	C632.8,675.2,651.8,652.9,651.8,623.7z"/>
<path class="st0" d="M699,680l18.1-25.6c11.1,11.4,28.3,21.1,50,21.1c18.4,0,27.4-8.4,27.4-17.5c0-27.7-90.6-8.7-90.6-68
	c0-26.2,22.6-47.9,59.6-47.9c25,0,45.7,7.5,61.4,22l-18.7,24.4c-12.6-11.7-29.8-17.2-45.7-17.2c-14.4,0-22.3,6.3-22.3,15.6
	c0,25,90.3,8.1,90.3,66.8c0,28.9-20.5,50.6-62.9,50.6C735.5,704.9,713.8,694.7,699,680z"/>
<path class="st0" d="M988,702.2V592.1l-44.2,110.2H929l-44.2-110.2v110.2h-33.4V544.8h47l38.2,95.1l38.2-95.1h47.3v157.1h-34V702.2z
	"/>
<path class="st0" d="M1045.2,623.7c0-47.3,34.6-81.3,82.2-81.3c47.6,0,82.2,34,82.2,81.3c0,47.3-34.6,81.3-82.2,81.3
	C1079.8,704.9,1045.2,670.9,1045.2,623.7z M1175.2,623.7c0-29.5-19-51.8-47.9-51.8c-28.9,0-47.5,22.3-47.5,51.8
	c0,29.2,18.7,51.8,47.5,51.8C1156.2,675.2,1175.2,652.9,1175.2,623.7z"/>
<path class="st0" d="M1222.4,680l18.1-25.6c11.1,11.4,28.3,21.1,50,21.1c18.4,0,27.4-8.4,27.4-17.5c0-27.7-90.6-8.7-90.6-68
	c0-26.2,22.6-47.9,59.6-47.9c25,0,45.7,7.5,61.4,22l-18.7,24.4c-12.6-11.7-29.8-17.2-45.7-17.2c-14.4,0-22.3,6.3-22.3,15.6
	c0,25,90.3,8.1,90.3,66.8c0,28.9-20.5,50.6-62.9,50.6C1258.8,704.9,1237.2,694.7,1222.4,680z"/>
<path class="st0" d="M1374.4,702.2V544.8h33.7v157.1h-33.7V702.2z"/>
<path class="st0" d="M1428.6,680l18.1-25.6c11.1,11.4,28.3,21.1,50,21.1c18.4,0,27.4-8.4,27.4-17.5c0-27.7-90.6-8.7-90.6-68
	c0-26.2,22.6-47.9,59.6-47.9c25,0,45.7,7.5,61.4,22l-18.7,24.4c-12.6-11.7-29.8-17.2-45.7-17.2c-14.4,0-22.3,6.3-22.3,15.6
	c0,25,90.3,8.1,90.3,66.8c0,28.9-20.5,50.6-62.9,50.6C1464.7,704.9,1443,694.7,1428.6,680z"/>
<path class="st1" d="M462.5,487.3c-3.6-13.7-15-27.5-35.7-42.7c-16.6-12.2-34.1-19.2-48.1-19.2c-2.8,0-5.3,0.3-7.9,0.8
	c-6.4,1.3-12,6-15.5,13c-4.3,8.3-5.3,19.4-2.5,26.2c1,2.1,2.3,4.7,3.8,7c-13.5,8.3-21.1,10.6-22.2,10.9
	c35.1,11.9,64.4,36.8,82.8,69.2l0.3-3.1c0.8-8.5,3.3-18.4,6.9-28.5c3.6,1,7.1,1.6,10.7,1.6c9.4,0,17.6-3.9,22.7-10.9
	C462.7,504.4,464.8,495.1,462.5,487.3z"/>
<radialGradient id="SVGID_1_" cx="-1.9856" cy="1190.1919" r="7.2973" gradientTransform="matrix(15.5992 0 0 -15.8678 481.6588 19358.7598)" gradientUnits="userSpaceOnUse">
	<stop  offset="0" style="stop-color:#FFEAFF;stop-opacity:0.6"/>
	<stop  offset="0.6807" style="stop-color:#A087C9"/>
	<stop  offset="1" style="stop-color:#10002F"/>
</radialGradient>
<path class="st2" d="M425.8,513.2c23.2,6.5,32.6-11.7,29.5-23.8c-3.3-12.2-14-24.6-32.9-38.6c-18.8-14-37.9-19.7-50.2-17.1
	c-12.2,2.6-15.8,21.5-12.7,28.8c1.3,2.8,4.1,7,7.9,11.7c-4.8,3.4-9.4,6-13.2,8.3c23.4,10.6,43.8,27.2,59.1,47.9
	c1.8-7,4.3-13.2,6.6-18.7C421.7,511.9,423.7,512.4,425.8,513.2z"/>
<radialGradient id="SVGID_00000114049412575831458840000002196867797702799003_" cx="-1.6522" cy="1195.4847" r="7.2973" gradientTransform="matrix(38.1657 0 0 -38.8229 450.4137 46934.6016)" gradientUnits="userSpaceOnUse">
	<stop  offset="0" style="stop-color:#FFEAFF;stop-opacity:0.6"/>
	<stop  offset="0.6807" style="stop-color:#A087C9"/>
	<stop  offset="1" style="stop-color:#10002F"/>
</radialGradient>
<path style="fill:url(#SVGID_00000114049412575831458840000002196867797702799003_);" d="M293.1,767.1
	c78.6,0,142.4-64.8,142.4-144.8s-63.7-144.8-142.4-144.8c-78.6,0-142.4,64.8-142.4,144.8S214.5,767.1,293.1,767.1z"/>
<path class="st4" d="M443.6,477.4c-19.4-20.7-35.7-26.2-55.3-30.6c-15.3-3.6-11.2-12.4,7.4-10.6c-8.9-3.1-17.3-3.9-23.4-2.6
	c-12.2,2.6-15.8,21.5-12.7,28.8c1.3,2.8,4.1,7,7.9,11.7c-6.9,4.7-12.7,8-17.6,10.6c2.3,1,5.1,2.3,8.4,4.1
	c8.7,4.7,18.1,12.4,18.1,12.4c-14.3-12.4-11.2-18.1,8.4-32.1c6.1-4.4,17.3-3.9,27.8,1.6s22.7,19.2,22.7,19.2l-11.7,22.8
	c0.8,0.3,1.5,0.5,2.3,0.8c7.4,2.1,13.2,1.6,17.8-0.3C449,509.8,463,498.4,443.6,477.4z"/>
<path class="st1" d="M388.1,459.3c5.1,2.1,11.7,5.7,19.9,11.1c9.7,6.5,18.1,13.7,23.4,19.4c-8.9,11.9-14.8,28.2-18.3,39.6
	c1.8,2.6,3.8,5.2,5.6,7.8c1.8-6.5,4.8-16.1,8.9-25.6c1,0.3,2.3,0.3,3.6,0.3c3.1,0,6.6-0.5,9.4-2.9c2-1.6,4.3-4.4,4.1-9.6
	c0-4.9-3.8-11.1-11.7-18.7c-5.6-5.4-13.2-11.4-20.9-16.8c-21.9-14.8-37.2-18.9-44.1-11.9c-4.6,4.7-4.1,10.4-2.5,14.5
	c-8.1,5.4-15,9.3-19.6,11.9c3.1,1,5.9,2.3,8.9,3.6C362.9,477.7,374.6,470.2,388.1,459.3z M436.2,496.4c0.8,1.3,1,2.6,1,3.4
	c0,2.3-0.8,3.1-1.3,3.6c-1,0.8-3.1,1.3-4.8,1.3C432.7,501.5,434.4,498.9,436.2,496.4z M373.3,457.7c0.8-0.8,2.8-1.3,6.1-0.8
	c-2.5,2.1-5.1,3.9-7.6,5.7C371.5,460.9,371.8,459,373.3,457.7z"/>
<path class="st1" d="M293.1,468.9c-83.3,0-150.8,68.7-150.8,153.4s67.5,153.4,150.8,153.4c83.3,0,150.8-68.7,150.8-153.4
	S376.1,468.9,293.1,468.9z M293.1,767.1c-78.7,0-142.4-64.8-142.4-144.8s63.7-144.8,142.4-144.8c78.7,0,142.4,64.8,142.4,144.8
	S371.5,767.1,293.1,767.1z"/>
<linearGradient id="SVGID_00000101794343617664406350000007839752255450072451_" gradientUnits="userSpaceOnUse" x1="-184.4621" y1="730.8834" x2="-137.3543" y2="1016.5892" gradientTransform="matrix(1 0 0 -1 454 1496)">
	<stop  offset="0" style="stop-color:#81FFFF"/>
	<stop  offset="0.6202" style="stop-color:#FFFFFF;stop-opacity:0"/>
</linearGradient>
<path style="opacity:0.6;fill:url(#SVGID_00000101794343617664406350000007839752255450072451_);enable-background:new    ;" d="
	M293.1,767.1c78.6,0,142.4-64.8,142.4-144.8s-63.7-144.8-142.4-144.8c-78.6,0-142.4,64.8-142.4,144.8S214.5,767.1,293.1,767.1z"/>
<path class="st4" d="M292.1,749.5c-77.7-12.7-130.4-87-117.7-166.1c5.6-35,22.9-64.8,47.4-86.3c-35.7,21-62.1,57.5-69.3,102.1
	c-12.5,79,40.2,153.4,117.7,166.1c43.3,7.3,85.1-6.5,115.9-33.4C358.8,747.9,325.7,754.9,292.1,749.5z"/>
<linearGradient id="SVGID_00000088101206765492642500000002168771150691605434_" gradientUnits="userSpaceOnUse" x1="-59.3541" y1="970.7421" x2="-178.9182" y2="862.8961" gradientTransform="matrix(1 0 0 -1 454 1496)">
	<stop  offset="0.2888" style="stop-color:#FFFFFF"/>
	<stop  offset="0.7796" style="stop-color:#FFFFFF;stop-opacity:0"/>
</linearGradient>
<path style="opacity:0.6;fill:url(#SVGID_00000088101206765492642500000002168771150691605434_);enable-background:new    ;" d="
	M315.8,479.5c-35.9-6-70.8,2.3-99.3,20.7c-0.5,0.5-1,1-1,1c11-6.7,27-12.7,27-12.7c-41.3,24.4-54,52.1-54,52.1
	c16-31.6,63.2-53.9,100.1-55.4c36.9-1.6,61.1,9.6,90.7,33.7c29.5,24.4,47.4,74.1,45.6,113.5c-1.5,39.4-21.9,71.2-21.9,71.2
	c14-18.4,22.4-31.9,27.8-45.6c1-4.1,2-8.3,2.5-12.7C445.9,566.6,393.4,492.2,315.8,479.5z"/>
<linearGradient id="SVGID_00000046304600556610732100000004854566504427154850_" gradientUnits="userSpaceOnUse" x1="-296.4043" y1="806.2476" x2="-25.6662" y2="806.2476" gradientTransform="matrix(1 0 0 -1 454 1496)">
	<stop  offset="0" style="stop-color:#0002E9"/>
	<stop  offset="0.9952" style="stop-color:#FF00C7"/>
</linearGradient>
<path style="fill:url(#SVGID_00000046304600556610732100000004854566504427154850_);" d="M428.3,621c0,75.9-60.6,137.6-135.2,137.6
	S157.6,696.9,157.6,621H428.3z"/>
<linearGradient id="SVGID_00000097502027239228655250000008298555398879433641_" gradientUnits="userSpaceOnUse" x1="-12.2108" y1="862.1934" x2="-161.8436" y2="723.1753" gradientTransform="matrix(1 0 0 -1 454 1496)">
	<stop  offset="0.2888" style="stop-color:#FFFFFF"/>
	<stop  offset="0.7796" style="stop-color:#FFFFFF;stop-opacity:0"/>
</linearGradient>
<path style="opacity:0.6;fill:url(#SVGID_00000097502027239228655250000008298555398879433641_);enable-background:new    ;" d="
	M417.6,621c0,74.1-57.6,134.7-129.9,137.6c1.8,0,3.6,0,5.3,0c74.6,0,135.2-61.7,135.2-137.6H417.6z"/>
<linearGradient id="SVGID_00000073695097640093743290000008248464420227229058_" gradientUnits="userSpaceOnUse" x1="-296.4043" y1="806.2476" x2="-151.7389" y2="806.2476" gradientTransform="matrix(1 0 0 -1 454 1496)">
	<stop  offset="0" style="stop-color:#000292"/>
	<stop  offset="0.9952" style="stop-color:#7D00C7"/>
</linearGradient>
<path style="opacity:0.7;fill:url(#SVGID_00000073695097640093743290000008248464420227229058_);enable-background:new    ;" d="
	M176.7,621h-19.1c0,75.9,60.6,137.6,135.2,137.6c3.3,0,6.4,0,9.4-0.3C232.2,753.1,176.7,693.5,176.7,621z"/>
<linearGradient id="SVGID_00000036948584928412960740000005643323361323405225_" gradientUnits="userSpaceOnUse" x1="-296.1081" y1="862.3927" x2="-25.9136" y2="862.3927" gradientTransform="matrix(1 0 0 -1 454 1496)">
	<stop  offset="0" style="stop-color:#000292"/>
	<stop  offset="0.9952" style="stop-color:#BE00C7"/>
</linearGradient>
<path style="fill:url(#SVGID_00000036948584928412960740000005643323361323405225_);" d="M428.1,622.3c0-15.8-27-24.9-62.9-28
	c-26-2.1-52.2,0.5-82.3,9.8c-26,7.8-49.4,6.5-66.5,4.4c-37.9-4.4-58.8-4.9-58.8,13.7c0,26.9,54,60.6,135,49
	c41-6,62.1-18.1,86.3-26.4C405.2,636,428.1,636.3,428.1,622.3z"/>
<path class="st11" d="M337.4,557c12.7,0,22.9-10.4,22.9-23.3s-10.3-23.3-22.9-23.3c-12.7,0-22.9,10.4-22.9,23.3S324.7,557,337.4,557
	z"/>
<path class="st11" d="M374.8,574.3c5.3,0,9.7-4.4,9.7-9.8s-4.3-9.8-9.7-9.8s-9.7,4.4-9.7,9.8S369.5,574.3,374.8,574.3z"/>
<linearGradient id="SVGID_00000126300546996667843230000011976713093246505916_" gradientUnits="userSpaceOnUse" x1="-30.0088" y1="1009.5068" x2="-49.9123" y2="977.7104" gradientTransform="matrix(1 0 0 -1 454 1496)">
	<stop  offset="0.2888" style="stop-color:#FFFFFF"/>
	<stop  offset="0.7796" style="stop-color:#FFFFFF;stop-opacity:0"/>
</linearGradient>
<path style="opacity:0.6;fill:url(#SVGID_00000126300546996667843230000011976713093246505916_);enable-background:new    ;" d="
	M409.5,515c-0.3,0-0.5,0-0.5,0c-1.5-0.3-2.5-1.8-2.3-3.6c2.3-11.9,12-23.3,12.5-23.8c1-1.3,3.1-1.3,4.1-0.3c1.3,1,1.3,3.1,0.3,4.1
	c-0.3,0.3-9.2,10.9-11.2,21.2C412,514.2,410.8,515,409.5,515z"/>
<path class="st13" d="M283.7,730.3c3.9,0,7.1-3.2,7.1-7.3c0-4-3.2-7.3-7.1-7.3c-3.9,0-7.1,3.2-7.1,7.3
	C276.6,727.1,279.7,730.3,283.7,730.3z"/>
<linearGradient id="SVGID_00000115510240422856575310000005037437417197186964_" gradientUnits="userSpaceOnUse" x1="-177.5264" y1="772.8923" x2="-166.7512" y2="772.8923" gradientTransform="matrix(1 0 0 -1 454 1496)">
	<stop  offset="0.2888" style="stop-color:#FFFFFF"/>
	<stop  offset="0.7796" style="stop-color:#FFFFFF;stop-opacity:0"/>
</linearGradient>
<path style="opacity:0.6;fill:url(#SVGID_00000115510240422856575310000005037437417197186964_);enable-background:new    ;" d="
	M279.6,727.7c-2.8-2.9-2.8-7.5,0-10.4c0.5-0.5,1-0.8,1.5-1.3c-1,0.3-1.8,0.8-2.5,1.6c-2.8,2.8-2.8,7.5,0,10.4
	c2.3,2.3,5.9,2.8,8.7,1.3C284.7,730.3,281.6,729.8,279.6,727.7z"/>
<path class="st15" d="M286.2,721c0.8,0,1.5-0.7,1.5-1.6c0-0.9-0.7-1.6-1.5-1.6c-0.8,0-1.5,0.7-1.5,1.6
	C284.7,720.3,285.4,721,286.2,721z"/>
<path class="st13" d="M320.9,726.7c3.9,0,7.1-3.2,7.1-7.3c0-4-3.2-7.3-7.1-7.3s-7.1,3.2-7.1,7.3
	C313.7,723.4,316.9,726.7,320.9,726.7z"/>
<linearGradient id="SVGID_00000140720442907963833520000005776316088059171772_" gradientUnits="userSpaceOnUse" x1="-140.3747" y1="776.5228" x2="-129.5987" y2="776.5228" gradientTransform="matrix(1 0 0 -1 454 1496)">
	<stop  offset="0.2888" style="stop-color:#FFFFFF"/>
	<stop  offset="0.7796" style="stop-color:#FFFFFF;stop-opacity:0"/>
</linearGradient>
<path style="opacity:0.6;fill:url(#SVGID_00000140720442907963833520000005776316088059171772_);enable-background:new    ;" d="
	M316.8,724.1c-2.8-2.8-2.8-7.5,0-10.4c0.5-0.5,1-0.8,1.5-1.3c-1,0.3-1.8,0.8-2.5,1.6c-2.8,2.8-2.8,7.5,0,10.4
	c2.3,2.3,5.9,2.9,8.7,1.3C321.9,726.7,318.8,726.2,316.8,724.1z"/>
<path class="st15" d="M323.4,717.3c0.8,0,1.5-0.7,1.5-1.6c0-0.9-0.7-1.6-1.5-1.6c-0.8,0-1.5,0.7-1.5,1.6
	C321.9,716.6,322.6,717.3,323.4,717.3z"/>
<path class="st13" d="M302.5,743.5c3,0,5.3-2.4,5.3-5.4s-2.4-5.4-5.3-5.4c-3,0-5.3,2.4-5.3,5.4S299.6,743.5,302.5,743.5z"/>
<linearGradient id="SVGID_00000021819110468233304330000018048449188473740938_" gradientUnits="userSpaceOnUse" x1="-156.866" y1="757.7759" x2="-148.7762" y2="757.7759" gradientTransform="matrix(1 0 0 -1 454 1496)">
	<stop  offset="0.2888" style="stop-color:#FFFFFF"/>
	<stop  offset="0.7796" style="stop-color:#FFFFFF;stop-opacity:0"/>
</linearGradient>
<path style="opacity:0.6;fill:url(#SVGID_00000021819110468233304330000018048449188473740938_);enable-background:new    ;" d="
	M299.5,741.4c-2-2.1-2-5.7,0-7.8c0.3-0.3,0.8-0.5,1-0.8c-0.8,0.3-1.3,0.8-1.8,1.3c-2,2.1-2,5.7,0,7.8c1.8,1.8,4.3,2.1,6.6,0.8
	C303.3,743.5,301,743,299.5,741.4z"/>
<path class="st15" d="M304.3,736.3c0.6,0,1-0.5,1-1c0-0.6-0.5-1-1-1s-1,0.5-1,1C303.3,735.8,303.7,736.3,304.3,736.3z"/>
<path class="st13" d="M335.4,739.6c3,0,5.3-2.4,5.3-5.4c0-3-2.4-5.4-5.3-5.4c-3,0-5.3,2.4-5.3,5.4
	C330,737.2,332.4,739.6,335.4,739.6z"/>
<linearGradient id="SVGID_00000034790017866306671300000006208488925401732242_" gradientUnits="userSpaceOnUse" x1="-124.1213" y1="761.6632" x2="-116.0315" y2="761.6632" gradientTransform="matrix(1 0 0 -1 454 1496)">
	<stop  offset="0.2888" style="stop-color:#FFFFFF"/>
	<stop  offset="0.7796" style="stop-color:#FFFFFF;stop-opacity:0"/>
</linearGradient>
<path style="opacity:0.6;fill:url(#SVGID_00000034790017866306671300000006208488925401732242_);enable-background:new    ;" d="
	M332.3,737.6c-2-2.1-2-5.7,0-7.8c0.3-0.3,0.8-0.5,1-0.8c-0.8,0.3-1.3,0.8-1.8,1.3c-2,2.1-2,5.7,0,7.8c1.8,1.8,4.3,2.1,6.6,0.8
	C336.1,739.6,333.8,739.1,332.3,737.6z"/>
<path class="st15" d="M337.2,732.4c0.6,0,1-0.5,1-1c0-0.6-0.5-1-1-1s-1,0.5-1,1C336.1,731.9,336.6,732.4,337.2,732.4z"/>
<path class="st13" d="M253.4,727.7c6.5,0,11.7-5.3,11.7-11.9c0-6.6-5.2-11.9-11.7-11.9c-6.5,0-11.7,5.3-11.7,11.9
	C241.6,722.4,246.9,727.7,253.4,727.7z"/>
<linearGradient id="SVGID_00000183927817351885179090000010589377577425947029_" gradientUnits="userSpaceOnUse" x1="-212.339" y1="779.8738" x2="-194.7414" y2="779.8738" gradientTransform="matrix(1 0 0 -1 454 1496)">
	<stop  offset="0.2888" style="stop-color:#FFFFFF"/>
	<stop  offset="0.7796" style="stop-color:#FFFFFF;stop-opacity:0"/>
</linearGradient>
<path style="opacity:0.6;fill:url(#SVGID_00000183927817351885179090000010589377577425947029_);enable-background:new    ;" d="
	M246.7,723.3c-4.6-4.7-4.6-12.2,0-16.8c0.8-0.8,1.5-1.3,2.5-1.8c-1.5,0.5-2.8,1.6-4.1,2.6c-4.6,4.7-4.6,12.2,0,16.8
	c3.8,3.9,9.7,4.7,14.3,1.8C255.1,727.7,250.1,726.9,246.7,723.3z"/>
<path class="st15" d="M257.4,712.2c1.4,0,2.5-1.2,2.5-2.6c0-1.4-1.1-2.6-2.5-2.6c-1.4,0-2.5,1.2-2.5,2.6
	C254.9,711,256,712.2,257.4,712.2z"/>
<path class="st13" d="M358,698.4c6.5,0,11.7-5.3,11.7-11.9c0-6.6-5.2-11.9-11.7-11.9c-6.5,0-11.7,5.3-11.7,11.9
	C346.3,693.1,351.6,698.4,358,698.4z"/>
<linearGradient id="SVGID_00000016054291914350200430000016209475628289819572_" gradientUnits="userSpaceOnUse" x1="-107.8242" y1="809.1486" x2="-90.2259" y2="809.1486" gradientTransform="matrix(1 0 0 -1 454 1496)">
	<stop  offset="0.2888" style="stop-color:#FFFFFF"/>
	<stop  offset="0.7796" style="stop-color:#FFFFFF;stop-opacity:0"/>
</linearGradient>
<path style="opacity:0.6;fill:url(#SVGID_00000016054291914350200430000016209475628289819572_);enable-background:new    ;" d="
	M351.2,694c-4.6-4.7-4.6-12.2,0-16.8c0.8-0.8,1.5-1.3,2.5-1.8c-1.5,0.5-2.8,1.6-4.1,2.6c-4.6,4.7-4.6,12.2,0,16.8
	c3.8,3.9,9.7,4.7,14.3,1.8C359.6,698.4,354.7,697.7,351.2,694z"/>
<path class="st15" d="M362.1,682.9c1.4,0,2.5-1.2,2.5-2.6s-1.1-2.6-2.5-2.6c-1.4,0-2.5,1.2-2.5,2.6S360.7,682.9,362.1,682.9z"/>
</svg>
